# Blender 5.0.1
# www.blender.org
mtllib shotgun.mtl
o Cylinder
v -0.258294 0.045420 0.000118
v -0.147448 0.039470 0.000116
v -0.258294 0.037981 -0.014085
v -0.147448 0.033669 -0.010961
v -0.258294 0.023105 -0.014085
v -0.147448 0.022066 -0.011461
v -0.258294 0.015667 0.000118
v -0.147448 0.016265 0.000116
v -0.258294 0.023105 0.014322
v -0.147448 0.022066 0.012832
v -0.258294 0.037981 0.014322
v -0.147448 0.033669 0.011194
v -0.036765 0.041936 0.000118
v -0.036765 0.035485 -0.012201
v -0.036765 0.022582 -0.012756
v -0.034711 0.013362 -0.017874
v -0.036765 0.022582 0.014259
v -0.036765 0.035485 0.012437
v -0.144627 0.014499 -0.016568
v -0.143543 0.003383 -0.013203
v -0.143543 -0.001935 0.000174
v -0.148722 0.008988 0.000174
v -0.143543 0.003190 0.012215
v -0.144627 0.014875 0.016561
v -0.036765 0.001805 -0.014693
v -0.036765 0.014167 -0.018436
v -0.034711 -0.001650 -0.014248
v -0.036765 -0.004109 0.000182
v -0.036765 0.014585 0.018406
v -0.036765 0.001591 0.013573
v 0.034258 0.044248 0.000102
v 0.034258 0.037236 -0.010583
v 0.034258 0.023211 -0.011065
v 0.034258 0.030962 0.000102
v 0.034258 0.023211 0.012367
v 0.034258 0.037236 0.010787
v 0.034258 0.000627 -0.012745
v 0.034258 0.014064 -0.015991
v 0.099308 0.009510 0.000084
v 0.034258 -0.005801 0.000157
v 0.034258 0.014519 0.015963
v 0.034258 0.000394 0.011771
v -0.034711 0.039250 -0.011833
v -0.034711 0.047085 0.000104
v -0.034711 -0.001909 0.013142
v -0.034711 -0.008831 0.000166
v -0.034711 0.013871 0.017825
v -0.034711 0.023582 0.013807
v -0.034711 0.039250 0.012042
v -0.034711 0.023582 -0.012371
v 0.090335 -0.003744 0.000081
v 0.090335 -0.011040 -0.010429
v 0.090335 -0.011040 0.011625
v 0.198900 0.008007 0.000084
v 0.090335 -0.038346 0.000133
v 0.090335 -0.032296 -0.012010
v 0.090335 -0.019649 -0.015065
v 0.090335 -0.019221 0.015010
v 0.090335 -0.032515 0.011065
v 0.099308 0.002471 -0.012065
v 0.099308 0.002471 0.013429
v 0.099308 -0.059194 0.000145
v 0.099308 -0.045531 -0.013893
v 0.099308 -0.016972 -0.017425
v 0.099308 -0.016005 0.017343
v 0.099308 -0.046025 0.012782
v 0.198900 -0.013205 -0.012065
v 0.198900 -0.013205 0.013429
v 0.198900 -0.062934 0.000145
v 0.198900 -0.092596 0.000145
v 0.198900 -0.075006 -0.013893
v 0.198900 -0.038236 -0.017425
v 0.198900 -0.036991 0.017343
v 0.198900 -0.075642 0.012782
v 0.022505 -0.009059 -0.004245
v 0.022505 -0.009398 0.003349
v 0.003455 -0.009059 -0.004245
v 0.003455 -0.009398 0.003349
v 0.024354 -0.002013 0.013208
v 0.024354 -0.001752 -0.014320
v 0.001606 -0.001752 -0.014320
v 0.001606 -0.002013 0.013208
v 0.017995 -0.027005 0.003440
v 0.022505 -0.019461 0.003401
v 0.022505 -0.019461 -0.004192
v 0.017995 -0.027005 -0.004154
v 0.007965 -0.027005 -0.004154
v 0.003455 -0.019461 -0.004192
v 0.003455 -0.019461 0.003401
v 0.007965 -0.027005 0.003440
vn -0.5958 0.8031 -0.0000
vn 0.0159 0.9999 -0.0000
vn 0.0123 0.5273 -0.8496
vn -0.5887 0.4290 -0.6851
vn -0.2927 -0.1944 -0.9362
vn -0.6033 -0.4045 -0.6873
vn -0.8358 -0.5490 -0.0064
vn -0.6121 -0.7908 -0.0069
vn -0.2806 -0.1885 0.9411
vn -0.6116 -0.3935 0.6864
vn -0.3896 0.5360 0.7490
vn 0.0647 0.2383 0.9690
vn 0.3541 0.4363 0.8272
vn 0.6343 0.4020 0.6603
vn 0.0105 0.5574 0.8302
vn -0.5852 0.4448 0.6780
vn 0.0284 0.0301 0.9991
vn 0.0691 0.1213 0.9902
vn -0.1120 0.3591 -0.9266
vn 0.0762 0.3329 -0.9399
vn 0.0687 0.3102 0.9482
vn -0.1439 0.4149 0.8984
vn -0.6299 0.7767 0.0005
vn -0.4963 -0.6050 0.6227
vn -0.4918 -0.8707 0.0100
vn -0.5948 -0.8038 0.0114
vn -0.2130 -0.5566 0.8030
vn -0.5314 -0.0113 0.8470
vn 0.0338 0.0927 0.9951
vn 0.0384 0.1816 -0.9826
vn -0.5386 0.0688 -0.8398
vn -0.9910 -0.1337 0.0058
vn -0.3960 -0.5834 -0.7091
vn 0.0401 0.1058 -0.9936
vn 0.0909 0.1996 -0.9757
vn -0.0491 -0.5322 -0.8452
vn 0.1007 -0.5515 -0.8281
vn 0.0046 -0.5536 -0.8328
vn -0.4985 -0.5920 -0.6332
vn -0.1952 -0.5311 -0.8245
vn -0.3893 0.5100 -0.7670
vn -0.4446 0.8957 -0.0001
vn 0.6174 0.7867 -0.0000
vn 0.6280 0.3780 -0.6802
vn -0.4839 -0.8750 0.0116
vn -0.2834 -0.7413 -0.6084
vn -0.1961 0.0262 -0.9802
vn -0.4807 -0.4431 -0.7567
vn 0.9454 0.3260 -0.0060
vn -0.0601 -0.5503 0.8328
vn -0.4757 -0.4559 0.7523
vn -0.2060 -0.0363 0.9779
vn -0.1533 0.5074 0.8480
vn -0.3042 0.9522 -0.0273
vn 0.0863 0.2355 -0.9680
vn 0.3638 0.4503 -0.8154
vn -0.3953 -0.5915 0.7028
vn 0.0055 -0.5680 0.8230
vn 0.0982 -0.5675 0.8175
vn -0.1441 0.5519 -0.8213
vn -0.3409 0.5272 -0.7784
vn -0.1969 0.1034 -0.9749
vn -0.4531 0.8913 -0.0188
vn -0.4451 -0.4043 -0.7990
vn -0.4437 -0.4047 0.7996
vn -0.1929 0.0613 0.9793
vn -0.0703 -0.9974 0.0177
vn -0.7700 -0.6380 0.0118
vn 0.6765 0.0305 -0.7358
vn 0.5975 -0.3631 -0.7150
vn 0.6033 -0.3548 0.7142
vn 0.6761 0.0035 0.7368
vn -0.3417 0.5252 0.7794
vn 0.6894 0.3106 0.6543
vn 0.5127 0.8583 -0.0202
vn -0.5829 -0.8124 0.0143
vn 1.0000 -0.0000 -0.0000
vn 0.6977 0.3125 -0.6446
vn 0.4191 -0.9078 0.0135
vn 0.4424 -0.6816 0.5828
vn 0.4253 -0.6837 -0.5930
vn 0.7308 -0.2044 -0.6513
vn 0.3905 -0.6902 -0.6093
vn -0.3905 -0.6902 -0.6093
vn -0.7308 -0.2044 -0.6513
vn 0.3906 -0.6868 0.6130
vn 0.7313 -0.1992 0.6523
vn -0.3036 -0.7413 0.5986
vn -0.7313 -0.1992 0.6523
vn -0.3906 -0.6868 0.6130
vt 0.640960 0.982198
vt 0.641365 0.580742
vt 0.669481 0.580773
vt 0.669075 0.982226
vt 0.697617 0.580802
vt 0.697190 0.982255
vt 0.723587 0.580903
vt 0.722204 0.982352
vt 0.558171 0.982352
vt 0.555171 0.580912
vt 0.584905 0.580674
vt 0.584735 0.982141
vt 0.255519 0.976243
vt 0.192126 0.976243
vt 0.192126 0.511802
vt 0.255519 0.511802
vt 0.613250 0.580712
vt 0.612847 0.982169
vt 0.582059 0.143973
vt 0.528609 0.113114
vt 0.528609 0.051396
vt 0.582059 0.020537
vt 0.635508 0.051396
vt 0.635508 0.113114
vt 0.150231 0.976243
vt 0.150231 0.511802
vt 0.669937 0.178782
vt 0.698073 0.178814
vt 0.585362 0.178686
vt 0.613707 0.178718
vt 0.641822 0.178750
vt 0.907165 0.990298
vt 0.863113 0.990298
vt 0.863113 0.386869
vt 0.907165 0.386869
vt 0.981208 0.386869
vt 0.981208 0.990298
vt 0.952192 0.990298
vt 0.952192 0.386869
vt 0.740127 0.990298
vt 0.740126 0.386869
vt 0.772523 0.386869
vt 0.772523 0.990298
vt 0.443825 0.150205
vt 0.387667 0.150188
vt 0.425554 0.025264
vt 0.082206 0.976243
vt 0.145683 0.976243
vt 0.145683 0.511244
vt 0.082206 0.511244
vt 0.082206 0.587438
vt 0.082206 0.727693
vt 0.324602 0.057128
vt 0.862984 0.990298
vt 0.814614 0.990298
vt 0.814614 0.386869
vt 0.862983 0.386869
vt 0.423955 0.276668
vt 0.327384 0.252432
vt 0.284230 0.150251
vt 0.254557 0.976243
vt 0.312522 0.976243
vt 0.312522 0.532470
vt 0.254557 0.511244
vt 0.027828 0.976243
vt 0.027828 0.727693
vt 0.492098 0.233515
vt 0.492098 0.058323
vt 0.469851 0.304197
vt 0.429261 0.304197
vt 0.429261 0.592415
vt 0.469851 0.592415
vt 0.174718 0.810538
vt 0.117715 0.789870
vt 0.081689 0.855290
vt 0.158145 0.895732
vt 0.435523 0.304197
vt 0.478477 0.304197
vt 0.478477 0.592415
vt 0.435523 0.592415
vt 0.360192 0.304197
vt 0.406699 0.304197
vt 0.406699 0.592415
vt 0.360192 0.592415
vt 0.191715 0.976243
vt 0.191715 0.511244
vt 0.082518 0.976243
vt 0.082518 0.730339
vt 0.082518 0.586745
vt 0.082518 0.511802
vt 0.027828 0.993871
vt 0.082206 0.993871
vt 0.150231 0.993871
vt 0.082518 0.993871
vt 0.145683 0.993871
vt 0.191715 0.993871
vt 0.312522 0.993871
vt 0.255519 0.993871
vt 0.254557 0.993871
vt 0.031436 0.993871
vt 0.031436 0.976243
vt 0.192126 0.993871
vt 0.116753 0.789313
vt 0.093323 0.851265
vt 0.397369 0.592415
vt 0.392071 0.638539
vt 0.437623 0.638539
vt 0.360192 0.638539
vt 0.503862 0.638539
vt 0.507593 0.638539
vt 0.437283 0.638539
vt 0.397369 0.304197
vt 0.513515 0.304197
vt 0.513515 0.592415
vt 0.508181 0.304197
vt 0.508181 0.592415
vt 0.437623 0.937448
vt 0.503862 0.950960
vt 0.507593 0.954872
vt 0.437283 0.937806
vt 0.395319 0.638539
vt 0.395319 0.935546
vt 0.360192 0.947718
vt 0.547575 0.638539
vt 0.483094 0.984164
vt 0.392071 0.936873
vt 0.484626 0.984164
vt 0.547575 0.969843
vt 0.547575 0.972667
vt 0.027828 0.511244
vt 0.052832 0.587438
vt 0.027828 0.587438
vt 0.036365 0.415349
vt 0.036365 0.023876
vt 0.164156 0.023876
vt 0.256830 0.116549
vt 0.256830 0.322676
vt 0.164156 0.415349
vt 0.831787 0.222926
vt 0.867501 0.222926
vt 0.867681 0.278244
vt 0.831970 0.278244
vt 0.031436 0.586745
vt 0.031435 0.730339
vt 0.040539 0.023876
vt 0.040539 0.415349
vt 0.256830 0.116549
vt 0.831970 0.080603
vt 0.867681 0.080603
vt 0.867501 0.135922
vt 0.831787 0.135922
vt 0.867928 0.332183
vt 0.832214 0.330421
vt 0.054057 0.727693
vt 0.031435 0.511802
vt 0.832214 0.028426
vt 0.867928 0.026664
s 1
usemtl Material.001
f 1/1/1 2/2/2 4/3/3 3/4/4
f 3/4/4 4/3/3 6/5/5 5/6/6
f 5/6/6 6/5/5 8/7/7 7/8/8
f 7/9/8 8/10/7 10/11/9 9/12/10
f 49/13/11 48/14/12 35/15/13 36/16/14
f 9/12/10 10/11/9 12/17/15 11/18/16
f 11/18/16 12/17/15 2/2/2 1/1/1
f 1/19/1 3/20/4 5/21/6 7/22/8 9/23/10 11/24/16
f 48/14/12 47/25/17 41/26/18 35/15/13
f 6/5/5 4/3/3 14/27/19 15/28/20
f 12/17/15 10/11/9 17/29/21 18/30/22
f 4/3/3 2/2/2 13/31/23 14/27/19
f 23/32/24 21/33/25 28/34/26 30/35/27
f 2/2/2 12/17/15 18/30/22 13/31/23
f 17/36/21 10/37/9 24/38/28 29/39/29
f 6/40/5 15/41/20 26/42/30 19/43/31
f 8/44/7 22/45/32 24/46/28
f 27/47/33 16/48/34 38/49/35 37/50/36 80/51/37 81/52/38
f 24/46/28 22/45/32 23/53/24
f 21/54/25 20/55/39 25/56/40 28/57/26
f 22/45/32 19/58/31 20/59/39
f 22/45/32 21/60/25 23/53/24
f 43/61/41 44/62/42 31/63/43 32/64/44
f 46/65/45 27/47/33 81/52/38 77/66/46
f 29/39/29 24/38/28 23/32/24 30/35/27
f 25/56/40 20/55/39 19/43/31 26/42/30
f 8/44/7 6/67/5 19/58/31
f 21/60/25 22/45/32 20/59/39
f 10/68/9 8/44/7 24/46/28
f 22/45/32 8/44/7 19/58/31
f 37/69/36 38/70/35 57/71/47 56/72/48
f 31/73/43 36/74/14 35/75/13 34/76/49
f 41/77/18 42/78/50 59/79/51 58/80/52
f 34/81/49 35/82/13 53/83/53 51/84/54
f 35/82/13 41/77/18 58/80/52 53/83/53
f 50/85/55 43/61/41 32/64/44 33/86/56
f 44/62/42 49/13/11 36/16/14 31/63/43
f 16/48/34 50/85/55 33/86/56 38/49/35
f 47/25/17 45/87/57 82/88/58 79/89/59 42/90/50 41/26/18
f 28/91/26 25/92/40 27/47/33 46/65/45
f 29/93/29 30/94/27 45/87/57 47/25/17
f 26/95/30 15/96/20 50/85/55 16/48/34
f 13/97/23 18/98/22 49/13/11 44/62/42
f 15/96/20 14/99/19 43/61/41 50/85/55
f 30/94/27 28/100/26 46/101/45 45/87/57
f 14/99/19 13/97/23 44/62/42 43/61/41
f 25/92/40 26/95/30 16/48/34 27/47/33
f 17/102/21 29/93/29 47/25/17 48/14/12
f 18/98/22 17/102/21 48/14/12 49/13/11
f 32/103/44 31/73/43 34/76/49 33/104/56
f 57/71/47 52/105/60 60/106/61 64/107/62
f 52/105/60 51/84/54 39/108/63 60/106/61
f 56/72/48 57/71/47 64/107/62 63/109/64
f 58/80/52 59/79/51 66/110/65 65/111/66
f 38/70/35 33/112/56 52/105/60 57/71/47
f 33/112/56 34/81/49 51/84/54 52/105/60
f 42/78/50 40/113/67 55/114/68 59/79/51
f 40/115/67 37/69/36 56/72/48 55/116/68
f 63/109/64 64/107/62 72/117/69 71/118/70
f 65/111/66 66/110/65 74/119/71 73/120/72
f 61/121/73 65/111/66 73/120/72 68/122/74
f 39/108/63 61/121/73 68/122/74 54/123/75
f 59/79/51 55/114/68 62/124/76 66/110/65
f 55/116/68 56/72/48 63/109/64 62/124/76
f 51/84/54 53/83/53 61/121/73 39/108/63
f 53/83/53 58/80/52 65/111/66 61/121/73
f 54/123/75 68/122/74 73/120/72 69/125/77
f 67/126/78 54/123/75 69/127/77 72/117/69
f 70/128/79 71/118/70 72/117/69 69/127/77
f 74/119/71 70/129/79 69/125/77 73/120/72
f 60/106/61 39/108/63 54/123/75 67/126/78
f 64/107/62 60/106/61 67/126/78 72/117/69
f 66/110/65 62/124/76 70/129/79 74/119/71
f 62/124/76 63/109/64 71/118/70 70/128/79
f 40/130/67 76/131/80 75/132/81
f 77/133/46 75/134/81 85/135/82 86/136/83 87/137/84 88/138/85
f 83/139/86 86/140/83 85/141/82 84/142/87
f 76/143/80 42/90/50 79/89/59
f 75/132/81 77/66/46 81/52/38 80/51/37
f 78/144/88 76/143/80 79/89/59 82/88/58
f 45/87/57 46/101/45 78/144/88 82/88/58
f 76/145/80 78/146/88 89/138/89 90/137/90 83/147/86 84/135/87
f 89/148/89 88/149/85 87/150/84 90/151/90
f 84/142/87 85/141/82 75/152/81 76/153/80
f 90/151/90 87/150/84 86/140/83 83/139/86
f 78/154/88 46/65/45 77/66/46
f 80/51/37 37/50/36 75/132/81
f 40/130/67 75/132/81 37/50/36
f 42/90/50 76/143/80 40/155/67
f 89/148/89 78/156/88 77/157/46 88/149/85
